<?xml version="1.0" encoding="UTF-8"?><svg id="Calque_1" xmlns="http://www.w3.org/2000/svg" viewBox="0 0 100 100"><path d="m7.7,12.82l34.53,39.19c1.96,2.23,4.79,3.51,7.76,3.51s5.8-1.28,7.76-3.51L91.7,13.5c.28-.32.61-.56.96-.76-1.44-.63-3.02-.98-4.69-.98H12.03c-1.6,0-3.12.32-4.51.9.06.06.12.1.18.16Z"/><path d="m97.89,17.25c-.15.4-.37.78-.66,1.12l-33.94,38.51c-3.36,3.81-8.21,6-13.29,6s-9.93-2.19-13.29-6L2.18,17.69c-.07-.08-.12-.17-.18-.25-1.07,1.77-1.69,3.83-1.69,6.04v53.04c0,6.48,5.25,11.73,11.73,11.73h75.93c6.48,0,11.73-5.25,11.73-11.73V23.48c0-2.29-.67-4.42-1.8-6.23Z"/></svg>