<?xml version="1.0" encoding="UTF-8"?><svg id="Calque_1" xmlns="http://www.w3.org/2000/svg" viewBox="0 0 100 100"><g><circle cx="69.77" cy="28.13" r="16.3" transform="translate(-5.45 28.98) rotate(-22.61)"/><path d="m69.77,50h0c-16.7,0-30.23,13.54-30.23,30.23h0c0,4.38,3.55,7.93,7.93,7.93h44.6c4.38,0,7.93-3.55,7.93-7.93h0c0-16.7-13.54-30.23-30.23-30.23Z"/></g><g><circle cx="30.23" cy="28.13" r="16.3" transform="translate(-8.49 13.79) rotate(-22.61)"/><path d="m30.24,50h0C13.54,50,0,63.54,0,80.23h0c0,4.38,3.55,7.93,7.93,7.93h44.6c4.38,0,7.93-3.55,7.93-7.93h0c0-16.7-13.54-30.23-30.23-30.23Z"/></g></svg>